<mxfile host="app.diagrams.net" agent="Mozilla/5.0 (Windows NT 10.0; Win64; x64) AppleWebKit/537.36 (KHTML, like Gecko) Chrome/135.0.0.0 Safari/537.36 OPR/120.0.0.0" version="28.1.0">
  <diagram id="FEKjINcDisIPV5KZee3t" name="Page-1">
    <mxGraphModel dx="790" dy="488" grid="1" gridSize="10" guides="1" tooltips="1" connect="1" arrows="1" fold="1" page="1" pageScale="1" pageWidth="827" pageHeight="1169" math="0" shadow="0">
      <root>
        <mxCell id="0" />
        <mxCell id="1" parent="0" />
        <mxCell id="aELBI8OFU14AnCiIAI6i-1" value="" style="fillColor=#B8FDFF;strokeColor=#6c8ebf;opacity=30;rounded=1;arcSize=2;" parent="1" vertex="1">
          <mxGeometry x="73" y="110" width="1510" height="330" as="geometry" />
        </mxCell>
        <mxCell id="aELBI8OFU14AnCiIAI6i-2" value="" style="fillColor=#9EFFCF;strokeColor=#6c8ebf;opacity=30;rounded=1;arcSize=2;" parent="1" vertex="1">
          <mxGeometry x="70" y="458" width="1520" height="494" as="geometry" />
        </mxCell>
        <mxCell id="aELBI8OFU14AnCiIAI6i-3" value="" style="fillColor=#81E87D;strokeColor=none;opacity=40;rounded=1;arcSize=10;" parent="1" vertex="1">
          <mxGeometry x="110" y="768.5" width="1460" height="174" as="geometry" />
        </mxCell>
        <mxCell id="aELBI8OFU14AnCiIAI6i-4" value="" style="fillColor=#12AAB5;strokeColor=none;opacity=50;rounded=1;" parent="1" vertex="1">
          <mxGeometry x="110" y="668.5" width="1460" height="80" as="geometry" />
        </mxCell>
        <mxCell id="aELBI8OFU14AnCiIAI6i-5" value="" style="fillColor=#158EBA;strokeColor=none;opacity=50;rounded=1;" parent="1" vertex="1">
          <mxGeometry x="110" y="577.5" width="1460" height="80" as="geometry" />
        </mxCell>
        <mxCell id="aELBI8OFU14AnCiIAI6i-6" value="Wants to analyze user behavior in the medicines medical orders" style="rounded=1;fillColor=#23445D;gradientColor=none;strokeColor=none;fontColor=#FFFFFF;fontStyle=0;fontFamily=Tahoma;fontSize=23;whiteSpace=wrap;" parent="1" vertex="1">
          <mxGeometry x="1113" y="468" width="360" height="80" as="geometry" />
        </mxCell>
        <mxCell id="aELBI8OFU14AnCiIAI6i-7" value="Want to analyze user behavior in EPS approved pharmacies" style="rounded=1;fillColor=#23445D;gradientColor=none;strokeColor=none;fontColor=#FFFFFF;fontStyle=0;fontFamily=Tahoma;fontSize=23;whiteSpace=wrap;" parent="1" vertex="1">
          <mxGeometry x="473" y="468" width="437" height="80" as="geometry" />
        </mxCell>
        <mxCell id="aELBI8OFU14AnCiIAI6i-8" value="" style="edgeStyle=orthogonalEdgeStyle;rounded=0;html=1;jettySize=auto;orthogonalLoop=1;" parent="1" source="aELBI8OFU14AnCiIAI6i-9" target="aELBI8OFU14AnCiIAI6i-10" edge="1">
          <mxGeometry relative="1" as="geometry" />
        </mxCell>
        <mxCell id="aELBI8OFU14AnCiIAI6i-9" value="Improve stock management in the pharmacies" style="rounded=1;fillColor=#23445D;gradientColor=none;strokeColor=none;fontColor=#FFFFFF;fontStyle=0;fontFamily=Tahoma;fontSize=20;whiteSpace=wrap;" parent="1" vertex="1">
          <mxGeometry x="340" y="674.5" width="240" height="68" as="geometry" />
        </mxCell>
        <mxCell id="aELBI8OFU14AnCiIAI6i-10" value="Balance medicine stock across strategical pharmacies" style="rounded=1;fillColor=#23445D;gradientColor=none;strokeColor=none;fontColor=#FFFFFF;fontStyle=0;fontFamily=Tahoma;fontSize=20;whiteSpace=wrap;" parent="1" vertex="1">
          <mxGeometry x="640" y="671.5" width="256" height="72" as="geometry" />
        </mxCell>
        <mxCell id="aELBI8OFU14AnCiIAI6i-11" value="Wants to know the user&#39;s most preferred pharmacies locations" style="rounded=1;fillColor=#23445D;gradientColor=none;strokeColor=none;fontColor=#FFFFFF;fontStyle=0;fontFamily=Tahoma;fontSize=20;whiteSpace=wrap;" parent="1" vertex="1">
          <mxGeometry x="710" y="580" width="280" height="73" as="geometry" />
        </mxCell>
        <mxCell id="URBacpaCe1M2qzBG3RH--4" value="" style="edgeStyle=orthogonalEdgeStyle;rounded=0;orthogonalLoop=1;jettySize=auto;html=1;" edge="1" parent="1" source="aELBI8OFU14AnCiIAI6i-12" target="URBacpaCe1M2qzBG3RH--1">
          <mxGeometry relative="1" as="geometry" />
        </mxCell>
        <mxCell id="aELBI8OFU14AnCiIAI6i-12" value="Increase availability of high demand medicines" style="rounded=1;fillColor=#23445D;gradientColor=none;strokeColor=none;fontColor=#FFFFFF;fontStyle=0;fontFamily=Tahoma;fontSize=20;whiteSpace=wrap;" parent="1" vertex="1">
          <mxGeometry x="1040" y="670" width="220" height="68" as="geometry" />
        </mxCell>
        <mxCell id="aELBI8OFU14AnCiIAI6i-13" value="Wants to know the most ordered medicines" style="rounded=1;fillColor=#23445D;gradientColor=none;strokeColor=none;fontColor=#FFFFFF;fontStyle=0;fontFamily=Tahoma;fontSize=20;whiteSpace=wrap;" parent="1" vertex="1">
          <mxGeometry x="1310" y="588" width="223" height="60" as="geometry" />
        </mxCell>
        <mxCell id="aELBI8OFU14AnCiIAI6i-14" value="" style="edgeStyle=elbowEdgeStyle;elbow=vertical;strokeWidth=2;rounded=0;entryX=0.5;entryY=0;exitX=0.5;exitY=1;" parent="1" source="aELBI8OFU14AnCiIAI6i-7" target="aELBI8OFU14AnCiIAI6i-9" edge="1">
          <mxGeometry x="-33" y="267.5" width="100" height="100" as="geometry">
            <mxPoint x="-33" y="367.5" as="sourcePoint" />
            <mxPoint x="472" y="587.5000000000001" as="targetPoint" />
            <Array as="points">
              <mxPoint x="560" y="571.5" />
            </Array>
          </mxGeometry>
        </mxCell>
        <mxCell id="aELBI8OFU14AnCiIAI6i-15" value="" style="edgeStyle=elbowEdgeStyle;elbow=vertical;strokeWidth=2;rounded=0;entryX=0.5;entryY=0;exitX=0.5;exitY=1;" parent="1" source="aELBI8OFU14AnCiIAI6i-7" target="aELBI8OFU14AnCiIAI6i-11" edge="1">
          <mxGeometry x="-33" y="267.5" width="100" height="100" as="geometry">
            <mxPoint x="-33" y="367.5" as="sourcePoint" />
            <mxPoint x="822" y="587.5" as="targetPoint" />
            <Array as="points">
              <mxPoint x="647" y="571.5" />
            </Array>
          </mxGeometry>
        </mxCell>
        <mxCell id="aELBI8OFU14AnCiIAI6i-16" value="" style="edgeStyle=elbowEdgeStyle;elbow=vertical;strokeWidth=2;rounded=0;exitX=0.5;exitY=1;" parent="1" source="aELBI8OFU14AnCiIAI6i-6" target="aELBI8OFU14AnCiIAI6i-12" edge="1">
          <mxGeometry x="-187" y="267.5" width="100" height="100" as="geometry">
            <mxPoint x="-187" y="367.5" as="sourcePoint" />
            <mxPoint x="-87" y="267.5" as="targetPoint" />
            <Array as="points">
              <mxPoint x="1150" y="570" />
              <mxPoint x="1230" y="570" />
              <mxPoint x="1220" y="560" />
              <mxPoint x="1230" y="561.5" />
            </Array>
          </mxGeometry>
        </mxCell>
        <mxCell id="aELBI8OFU14AnCiIAI6i-17" value="" style="edgeStyle=elbowEdgeStyle;elbow=vertical;strokeWidth=2;rounded=0;exitX=0.5;exitY=1;" parent="1" source="aELBI8OFU14AnCiIAI6i-6" target="aELBI8OFU14AnCiIAI6i-13" edge="1">
          <mxGeometry x="-187" y="267.5" width="100" height="100" as="geometry">
            <mxPoint x="-187" y="367.5" as="sourcePoint" />
            <mxPoint x="-87" y="267.5" as="targetPoint" />
            <Array as="points">
              <mxPoint x="1422" y="570" />
              <mxPoint x="1400" y="570" />
              <mxPoint x="1310" y="561.5" />
            </Array>
          </mxGeometry>
        </mxCell>
        <mxCell id="aELBI8OFU14AnCiIAI6i-18" value="&lt;h1&gt;&lt;font style=&quot;font-size: 41px&quot;&gt;Persona Goals&lt;/font&gt;&lt;/h1&gt;&lt;p&gt;What does the persona wants? (Desires,&amp;nbsp; motivations, etc.)&lt;/p&gt;" style="text;html=1;strokeColor=none;fillColor=none;spacing=5;spacingTop=-20;whiteSpace=wrap;overflow=hidden;rounded=0;fontFamily=Tahoma;align=center;" parent="1" vertex="1">
          <mxGeometry x="87" y="457.5" width="330" height="120" as="geometry" />
        </mxCell>
        <mxCell id="aELBI8OFU14AnCiIAI6i-19" value="&lt;h1 style=&quot;font-size: 26px;&quot;&gt;&lt;font style=&quot;font-size: 26px;&quot;&gt;Needs &amp;amp; Expectations&lt;/font&gt;&lt;/h1&gt;" style="text;html=1;strokeColor=none;fillColor=none;spacing=5;spacingTop=-20;whiteSpace=wrap;overflow=hidden;rounded=0;fontFamily=Tahoma;align=center;fontSize=26;" parent="1" vertex="1">
          <mxGeometry x="143.5" y="572" width="217" height="81" as="geometry" />
        </mxCell>
        <mxCell id="aELBI8OFU14AnCiIAI6i-20" value="&lt;h1 style=&quot;font-size: 26px&quot;&gt;&lt;font style=&quot;font-size: 26px&quot;&gt;Desires &amp;amp; Motivations&lt;/font&gt;&lt;/h1&gt;" style="text;html=1;strokeColor=none;fillColor=none;spacing=5;spacingTop=-20;whiteSpace=wrap;overflow=hidden;rounded=0;fontFamily=Tahoma;align=center;fontSize=26;" parent="1" vertex="1">
          <mxGeometry x="143.5" y="667" width="217" height="81" as="geometry" />
        </mxCell>
        <mxCell id="aELBI8OFU14AnCiIAI6i-21" value="Reduce the demand of certain pharmacies and improve its service, reducing wait times" style="rounded=1;fillColor=#12AAB5;strokeColor=#6c8ebf;fontColor=#000000;fontStyle=0;fontFamily=Tahoma;fontSize=23;labelBackgroundColor=none;opacity=60;arcSize=6;whiteSpace=wrap;" parent="1" vertex="1">
          <mxGeometry x="407" y="783" width="480" height="149" as="geometry" />
        </mxCell>
        <mxCell id="aELBI8OFU14AnCiIAI6i-22" value="&lt;h1 style=&quot;font-size: 50px;&quot;&gt;&lt;font style=&quot;font-size: 50px;&quot;&gt;Why?&lt;/font&gt;&lt;/h1&gt;" style="text;html=1;strokeColor=none;fillColor=none;spacing=5;spacingTop=-20;whiteSpace=wrap;overflow=hidden;rounded=0;fontFamily=Tahoma;align=center;fontSize=50;verticalAlign=middle;" parent="1" vertex="1">
          <mxGeometry x="144" y="772" width="217" height="170" as="geometry" />
        </mxCell>
        <mxCell id="aELBI8OFU14AnCiIAI6i-23" value="Reduce users complaints regarding the lack of medicines " style="rounded=1;fillColor=#12AAB5;strokeColor=#6c8ebf;fontColor=#000000;fontStyle=0;fontFamily=Tahoma;fontSize=23;labelBackgroundColor=none;opacity=60;arcSize=6;whiteSpace=wrap;" parent="1" vertex="1">
          <mxGeometry x="1053" y="783" width="480" height="149" as="geometry" />
        </mxCell>
        <mxCell id="aELBI8OFU14AnCiIAI6i-24" value="" style="fillColor=#FFBF87;strokeColor=#d79b00;opacity=30;rounded=1;arcSize=2;" parent="1" vertex="1">
          <mxGeometry x="70" y="972.5" width="1520" height="420" as="geometry" />
        </mxCell>
        <mxCell id="aELBI8OFU14AnCiIAI6i-25" value="&lt;h1&gt;&lt;font style=&quot;font-size: 60px&quot;&gt;Persona &lt;/font&gt;&lt;font style=&quot;font-size: 40px&quot;&gt;Pain Points&lt;/font&gt;&lt;/h1&gt;&lt;p&gt;What difficulties does the Persona have? What impediments?&lt;/p&gt;" style="text;html=1;strokeColor=none;fillColor=none;spacing=5;spacingTop=-20;whiteSpace=wrap;overflow=hidden;rounded=0;fontFamily=Tahoma;align=center;verticalAlign=middle;" parent="1" vertex="1">
          <mxGeometry x="91" y="971.5" width="270" height="420" as="geometry" />
        </mxCell>
        <mxCell id="aELBI8OFU14AnCiIAI6i-26" value="There are many pharmacies which many not have a good stock management " style="rounded=1;fillColor=#F86459;gradientColor=none;strokeColor=#B85450;fontColor=#000000;fontStyle=0;fontFamily=Tahoma;fontSize=20;whiteSpace=wrap;labelBackgroundColor=none;opacity=80;" parent="1" vertex="1">
          <mxGeometry x="417" y="993" width="460" height="78" as="geometry" />
        </mxCell>
        <mxCell id="aELBI8OFU14AnCiIAI6i-27" value="Many aglomeration of people in certain pharmacies make the handle of it really hard" style="rounded=1;fillColor=#F86459;gradientColor=none;strokeColor=#B85450;fontColor=#000000;fontStyle=0;fontFamily=Tahoma;fontSize=20;whiteSpace=wrap;labelBackgroundColor=none;opacity=80;" parent="1" vertex="1">
          <mxGeometry x="417" y="1130" width="460" height="77" as="geometry" />
        </mxCell>
        <mxCell id="aELBI8OFU14AnCiIAI6i-28" value="" style="rounded=1;fillColor=#F86459;gradientColor=none;strokeColor=#B85450;fontColor=#000000;fontStyle=0;fontFamily=Tahoma;fontSize=20;whiteSpace=wrap;labelBackgroundColor=none;opacity=80;" parent="1" vertex="1">
          <mxGeometry x="1063" y="1132" width="460" height="69" as="geometry" />
        </mxCell>
        <mxCell id="aELBI8OFU14AnCiIAI6i-29" value="" style="rounded=1;fillColor=#F86459;gradientColor=none;strokeColor=#B85450;fontColor=#000000;fontStyle=0;fontFamily=Tahoma;fontSize=20;whiteSpace=wrap;labelBackgroundColor=none;opacity=80;" parent="1" vertex="1">
          <mxGeometry x="1063" y="1000" width="460" height="77" as="geometry" />
        </mxCell>
        <mxCell id="aELBI8OFU14AnCiIAI6i-30" value="" style="edgeStyle=elbowEdgeStyle;elbow=horizontal;strokeWidth=2;rounded=0" parent="1" source="aELBI8OFU14AnCiIAI6i-21" target="aELBI8OFU14AnCiIAI6i-26" edge="1">
          <mxGeometry x="490" y="711.5" width="100" height="100" as="geometry">
            <mxPoint x="930" y="1061.5" as="sourcePoint" />
            <mxPoint x="930" y="1151.5" as="targetPoint" />
            <Array as="points">
              <mxPoint x="920" y="941.5" />
            </Array>
          </mxGeometry>
        </mxCell>
        <mxCell id="aELBI8OFU14AnCiIAI6i-31" value="" style="edgeStyle=elbowEdgeStyle;elbow=horizontal;strokeWidth=2;rounded=0;exitX=1;exitY=0.5;entryX=1;entryY=0.5;" parent="1" source="aELBI8OFU14AnCiIAI6i-21" target="aELBI8OFU14AnCiIAI6i-27" edge="1">
          <mxGeometry x="510" y="731.5" width="100" height="100" as="geometry">
            <mxPoint x="899.9999999999995" y="877.5" as="sourcePoint" />
            <mxPoint x="897" y="1041.5" as="targetPoint" />
            <Array as="points">
              <mxPoint x="920" y="1001.5" />
            </Array>
          </mxGeometry>
        </mxCell>
        <mxCell id="aELBI8OFU14AnCiIAI6i-32" value="" style="edgeStyle=orthogonalEdgeStyle;elbow=horizontal;strokeWidth=2;rounded=0;exitX=1;exitY=0.25;entryX=0;entryY=0.5;" parent="1" source="aELBI8OFU14AnCiIAI6i-21" target="aELBI8OFU14AnCiIAI6i-41" edge="1">
          <mxGeometry x="530" y="761.5" width="100" height="100" as="geometry">
            <mxPoint x="1680" y="911.5" as="sourcePoint" />
            <mxPoint x="877.1428571428573" y="1318.2142857142858" as="targetPoint" />
            <Array as="points">
              <mxPoint x="970" y="819.5" />
              <mxPoint x="970" y="1296.5" />
            </Array>
          </mxGeometry>
        </mxCell>
        <mxCell id="aELBI8OFU14AnCiIAI6i-33" value="" style="edgeStyle=orthogonalEdgeStyle;elbow=horizontal;strokeWidth=2;rounded=0;entryX=1;entryY=0.5;exitX=0;exitY=0.25;" parent="1" source="aELBI8OFU14AnCiIAI6i-23" target="aELBI8OFU14AnCiIAI6i-40" edge="1">
          <mxGeometry x="540" y="771.5" width="100" height="100" as="geometry">
            <mxPoint x="1660" y="858.5" as="sourcePoint" />
            <mxPoint x="1062.8571428571431" y="1316.7857142857144" as="targetPoint" />
            <Array as="points">
              <mxPoint x="970" y="819.5" />
              <mxPoint x="970" y="1296.5" />
            </Array>
          </mxGeometry>
        </mxCell>
        <mxCell id="aELBI8OFU14AnCiIAI6i-34" value="" style="edgeStyle=elbowEdgeStyle;elbow=horizontal;strokeWidth=2;rounded=0;entryX=0;entryY=0.5;exitX=0;exitY=0.5;" parent="1" source="aELBI8OFU14AnCiIAI6i-23" target="aELBI8OFU14AnCiIAI6i-29" edge="1">
          <mxGeometry x="580" y="811.5" width="100" height="100" as="geometry">
            <mxPoint x="1063" y="868.2142857142858" as="sourcePoint" />
            <mxPoint x="1073" y="1146.7857142857144" as="targetPoint" />
            <Array as="points">
              <mxPoint x="1020" y="1011.5" />
            </Array>
          </mxGeometry>
        </mxCell>
        <mxCell id="aELBI8OFU14AnCiIAI6i-35" value="" style="edgeStyle=elbowEdgeStyle;elbow=horizontal;strokeWidth=2;rounded=0;entryX=0;entryY=0.5;exitX=0;exitY=0.5;" parent="1" source="aELBI8OFU14AnCiIAI6i-23" target="aELBI8OFU14AnCiIAI6i-28" edge="1">
          <mxGeometry x="590" y="821.5" width="100" height="100" as="geometry">
            <mxPoint x="1063" y="868.2142857142858" as="sourcePoint" />
            <mxPoint x="1073" y="1086.7857142857144" as="targetPoint" />
            <Array as="points">
              <mxPoint x="1020" y="971.5" />
            </Array>
          </mxGeometry>
        </mxCell>
        <mxCell id="aELBI8OFU14AnCiIAI6i-37" value="" style="edgeStyle=elbowEdgeStyle;elbow=vertical;strokeWidth=2;rounded=0;entryX=0.5;entryY=0;exitX=0.5;exitY=1;" parent="1" source="aELBI8OFU14AnCiIAI6i-12" target="aELBI8OFU14AnCiIAI6i-23" edge="1">
          <mxGeometry x="630" y="861.5" width="100" height="100" as="geometry">
            <mxPoint x="1478.4705882352941" y="657.6764705882354" as="sourcePoint" />
            <mxPoint x="1303.1764705882356" y="792.9705882352941" as="targetPoint" />
            <Array as="points">
              <mxPoint x="1420" y="761.5" />
              <mxPoint x="1390" y="771.5" />
            </Array>
          </mxGeometry>
        </mxCell>
        <mxCell id="aELBI8OFU14AnCiIAI6i-38" value="" style="edgeStyle=elbowEdgeStyle;elbow=vertical;strokeWidth=2;rounded=0;entryX=0.5;entryY=0;exitX=0.5;exitY=1;" parent="1" source="aELBI8OFU14AnCiIAI6i-9" target="aELBI8OFU14AnCiIAI6i-21" edge="1">
          <mxGeometry x="-18" y="985.5" width="100" height="100" as="geometry">
            <mxPoint x="470" y="771.5" as="sourcePoint" />
            <mxPoint x="645" y="907.5" as="targetPoint" />
            <Array as="points">
              <mxPoint x="570" y="761.5" />
              <mxPoint x="742" y="895.5" />
            </Array>
          </mxGeometry>
        </mxCell>
        <mxCell id="aELBI8OFU14AnCiIAI6i-39" value="" style="edgeStyle=elbowEdgeStyle;elbow=vertical;strokeWidth=2;rounded=0;entryX=0.5;entryY=0;" parent="1" source="aELBI8OFU14AnCiIAI6i-5" target="aELBI8OFU14AnCiIAI6i-21" edge="1">
          <mxGeometry x="-27" y="960" width="100" height="100" as="geometry">
            <mxPoint x="821" y="756" as="sourcePoint" />
            <mxPoint x="646" y="791.5" as="targetPoint" />
            <Array as="points">
              <mxPoint x="900" y="760" />
              <mxPoint x="770" y="760" />
              <mxPoint x="750" y="760" />
              <mxPoint x="750" y="761.5" />
            </Array>
          </mxGeometry>
        </mxCell>
        <mxCell id="aELBI8OFU14AnCiIAI6i-40" value="" style="rounded=1;fillColor=#5490DE;strokeColor=none;fontColor=#000000;fontStyle=0;fontFamily=Tahoma;fontSize=20;whiteSpace=wrap;spacingLeft=10;spacingRight=10;opacity=80;" parent="1" vertex="1">
          <mxGeometry x="417" y="1241.5" width="460" height="110" as="geometry" />
        </mxCell>
        <mxCell id="aELBI8OFU14AnCiIAI6i-41" value="" style="rounded=1;fillColor=#5490DE;strokeColor=none;fontColor=#000000;fontStyle=0;fontFamily=Tahoma;fontSize=20;whiteSpace=wrap;spacingLeft=10;spacingRight=10;opacity=80;" parent="1" vertex="1">
          <mxGeometry x="1063" y="1241.5" width="460" height="110" as="geometry" />
        </mxCell>
        <mxCell id="aELBI8OFU14AnCiIAI6i-42" value="&lt;h1&gt;&lt;font style=&quot;font-size: 41px&quot;&gt;Persona&lt;/font&gt;&lt;/h1&gt;&lt;p&gt;Who is the persona?&lt;/p&gt;" style="text;html=1;strokeColor=none;fillColor=none;spacing=5;spacingTop=-20;whiteSpace=wrap;overflow=hidden;rounded=0;fontFamily=Tahoma;align=center;" parent="1" vertex="1">
          <mxGeometry x="91" y="115" width="292" height="110" as="geometry" />
        </mxCell>
        <mxCell id="aELBI8OFU14AnCiIAI6i-43" value="" style="fillColor=#158EBA;strokeColor=#6c8ebf;opacity=30;rounded=1;arcSize=2;" parent="1" vertex="1">
          <mxGeometry x="1020" y="140" width="533" height="282" as="geometry" />
        </mxCell>
        <mxCell id="aELBI8OFU14AnCiIAI6i-44" value="&lt;h1 style=&quot;font-size: 26px&quot;&gt;&lt;font style=&quot;font-size: 26px&quot;&gt;Demographics&lt;/font&gt;&lt;/h1&gt;" style="text;html=1;strokeColor=none;fillColor=none;spacing=5;spacingTop=-20;whiteSpace=wrap;overflow=hidden;rounded=0;fontFamily=Tahoma;align=center;fontSize=26;" parent="1" vertex="1">
          <mxGeometry x="1040" y="150" width="229" height="50" as="geometry" />
        </mxCell>
        <mxCell id="aELBI8OFU14AnCiIAI6i-45" value="" style="rounded=1;fillColor=#275DAD;gradientColor=none;strokeColor=none;fontColor=#FFFFFF;fontStyle=0;fontFamily=Tahoma;fontSize=23;whiteSpace=wrap;" parent="1" vertex="1">
          <mxGeometry x="1080.5" y="239" width="176" height="60" as="geometry" />
        </mxCell>
        <mxCell id="aELBI8OFU14AnCiIAI6i-47" value="" style="rounded=1;fillColor=#275DAD;gradientColor=none;strokeColor=none;fontColor=#FFFFFF;fontStyle=0;fontFamily=Tahoma;fontSize=23;whiteSpace=wrap;" parent="1" vertex="1">
          <mxGeometry x="1061" y="330" width="215" height="70" as="geometry" />
        </mxCell>
        <mxCell id="aELBI8OFU14AnCiIAI6i-48" value="" style="fillColor=#158EBA;strokeColor=#6c8ebf;opacity=30;rounded=1;arcSize=2;" parent="1" vertex="1">
          <mxGeometry x="383" y="140" width="610" height="280" as="geometry" />
        </mxCell>
        <mxCell id="aELBI8OFU14AnCiIAI6i-49" value="&lt;h1 style=&quot;font-size: 26px&quot;&gt;&lt;font style=&quot;font-size: 26px&quot;&gt;Basic info&lt;/font&gt;&lt;/h1&gt;" style="text;html=1;strokeColor=none;fillColor=none;spacing=5;spacingTop=-20;whiteSpace=wrap;overflow=hidden;rounded=0;fontFamily=Tahoma;align=center;fontSize=26;" parent="1" vertex="1">
          <mxGeometry x="383" y="150" width="229" height="50" as="geometry" />
        </mxCell>
        <mxCell id="aELBI8OFU14AnCiIAI6i-50" value="" style="rounded=1;fillColor=#275DAD;gradientColor=none;strokeColor=none;fontColor=#FFFFFF;fontStyle=0;fontFamily=Tahoma;fontSize=23;whiteSpace=wrap;" parent="1" vertex="1">
          <mxGeometry x="598" y="225" width="203" height="65" as="geometry" />
        </mxCell>
        <mxCell id="aELBI8OFU14AnCiIAI6i-51" value="" style="fillColor=#D6D6D6;strokeColor=#6c8ebf;opacity=30;rounded=1;arcSize=2;" parent="1" vertex="1">
          <mxGeometry x="75" y="1410" width="1510" height="330" as="geometry" />
        </mxCell>
        <mxCell id="aELBI8OFU14AnCiIAI6i-52" value="&lt;h1&gt;&lt;font style=&quot;font-size: 40px&quot;&gt;Persona Environment&lt;/font&gt;&lt;/h1&gt;&lt;p&gt;&amp;nbsp;&amp;nbsp;&lt;span&gt;What technological devices does your persona use on a regular basis? What is their technical ability?&lt;/span&gt;&lt;/p&gt;" style="text;html=1;strokeColor=none;fillColor=none;spacing=5;spacingTop=-20;whiteSpace=wrap;overflow=hidden;rounded=0;fontFamily=Tahoma;align=center;verticalAlign=middle;" parent="1" vertex="1">
          <mxGeometry x="91" y="1430" width="282" height="220" as="geometry" />
        </mxCell>
        <mxCell id="aELBI8OFU14AnCiIAI6i-53" value="" style="fillColor=#9C89B8;strokeColor=#6c8ebf;opacity=30;rounded=1;arcSize=2;" parent="1" vertex="1">
          <mxGeometry x="420" y="1430" width="610" height="290" as="geometry" />
        </mxCell>
        <mxCell id="aELBI8OFU14AnCiIAI6i-54" value="&lt;h1 style=&quot;font-size: 26px&quot;&gt;&lt;font style=&quot;font-size: 26px&quot;&gt;Technical ability&lt;/font&gt;&lt;/h1&gt;" style="text;html=1;strokeColor=none;fillColor=none;spacing=5;spacingTop=-20;whiteSpace=wrap;overflow=hidden;rounded=0;fontFamily=Tahoma;align=center;fontSize=26;" parent="1" vertex="1">
          <mxGeometry x="430" y="1440" width="250" height="81" as="geometry" />
        </mxCell>
        <mxCell id="aELBI8OFU14AnCiIAI6i-55" value="" style="fillColor=#9C89B8;strokeColor=#6c8ebf;opacity=30;rounded=1;arcSize=2;" parent="1" vertex="1">
          <mxGeometry x="1060" y="1430" width="500" height="290" as="geometry" />
        </mxCell>
        <mxCell id="aELBI8OFU14AnCiIAI6i-56" value="&lt;h1 style=&quot;font-size: 26px&quot;&gt;&lt;font style=&quot;font-size: 26px&quot;&gt;Devices&lt;/font&gt;&lt;/h1&gt;" style="text;html=1;strokeColor=none;fillColor=none;spacing=5;spacingTop=-20;whiteSpace=wrap;overflow=hidden;rounded=0;fontFamily=Tahoma;align=center;fontSize=26;" parent="1" vertex="1">
          <mxGeometry x="1019" y="1444" width="250" height="81" as="geometry" />
        </mxCell>
        <mxCell id="aELBI8OFU14AnCiIAI6i-61" value="" style="rounded=1;fillColor=#275DAD;gradientColor=none;strokeColor=none;fontColor=#FFFFFF;fontStyle=0;fontFamily=Tahoma;fontSize=23;whiteSpace=wrap;" parent="1" vertex="1">
          <mxGeometry x="438" y="318" width="209" height="63" as="geometry" />
        </mxCell>
        <mxCell id="aELBI8OFU14AnCiIAI6i-62" value="" style="rounded=1;fillColor=#275DAD;gradientColor=none;strokeColor=none;fontColor=#FFFFFF;fontStyle=0;fontFamily=Tahoma;fontSize=23;whiteSpace=wrap;" parent="1" vertex="1">
          <mxGeometry x="747" y="318" width="209" height="63" as="geometry" />
        </mxCell>
        <mxCell id="aELBI8OFU14AnCiIAI6i-63" value="" style="rounded=1;fillColor=#275DAD;gradientColor=none;strokeColor=none;fontColor=#FFFFFF;fontStyle=0;fontFamily=Tahoma;fontSize=23;whiteSpace=wrap;" parent="1" vertex="1">
          <mxGeometry x="1310" y="328" width="215" height="72" as="geometry" />
        </mxCell>
        <mxCell id="aELBI8OFU14AnCiIAI6i-65" value="" style="rounded=1;fillColor=#60495A;strokeColor=none;fontColor=#FFFFFF;fontStyle=0;fontFamily=Tahoma;fontSize=20;whiteSpace=wrap;spacingLeft=10;spacingRight=10;opacity=80;" parent="1" vertex="1">
          <mxGeometry x="1110" y="1505" width="200" height="155" as="geometry" />
        </mxCell>
        <mxCell id="aELBI8OFU14AnCiIAI6i-66" value="" style="rounded=1;fillColor=#60495A;strokeColor=none;fontColor=#FFFFFF;fontStyle=0;fontFamily=Tahoma;fontSize=20;whiteSpace=wrap;spacingLeft=10;spacingRight=10;opacity=80;" parent="1" vertex="1">
          <mxGeometry x="1350" y="1505" width="183" height="155" as="geometry" />
        </mxCell>
        <mxCell id="aELBI8OFU14AnCiIAI6i-75" style="edgeStyle=orthogonalEdgeStyle;rounded=0;html=1;exitX=0.5;exitY=1;exitDx=0;exitDy=0;entryX=0.5;entryY=0;entryDx=0;entryDy=0;jettySize=auto;orthogonalLoop=1;" parent="1" source="aELBI8OFU14AnCiIAI6i-68" target="aELBI8OFU14AnCiIAI6i-74" edge="1">
          <mxGeometry relative="1" as="geometry" />
        </mxCell>
        <mxCell id="aELBI8OFU14AnCiIAI6i-68" value="" style="rounded=1;fillColor=#60495A;strokeColor=none;fontColor=#FFFFFF;fontStyle=0;fontFamily=Tahoma;fontSize=20;whiteSpace=wrap;spacingLeft=10;spacingRight=10;opacity=80;" parent="1" vertex="1">
          <mxGeometry x="440" y="1500" width="290" height="83" as="geometry" />
        </mxCell>
        <mxCell id="aELBI8OFU14AnCiIAI6i-69" value="" style="rounded=1;fillColor=#60495A;strokeColor=none;fontColor=#FFFFFF;fontStyle=0;fontFamily=Tahoma;fontSize=20;whiteSpace=wrap;spacingLeft=10;spacingRight=10;opacity=80;" parent="1" vertex="1">
          <mxGeometry x="768.5" y="1516.5" width="253" height="66" as="geometry" />
        </mxCell>
        <mxCell id="aELBI8OFU14AnCiIAI6i-71" value="" style="rounded=1;fillColor=#60495A;strokeColor=none;fontColor=#FFFFFF;fontStyle=0;fontFamily=Tahoma;fontSize=20;whiteSpace=wrap;spacingLeft=10;spacingRight=10;opacity=80;" parent="1" vertex="1">
          <mxGeometry x="770" y="1630.5" width="250" height="59" as="geometry" />
        </mxCell>
        <mxCell id="aELBI8OFU14AnCiIAI6i-74" value="" style="rounded=1;fillColor=#60495A;strokeColor=none;fontColor=#FFFFFF;fontStyle=0;fontFamily=Tahoma;fontSize=20;whiteSpace=wrap;spacingLeft=10;spacingRight=10;opacity=80;" parent="1" vertex="1">
          <mxGeometry x="460" y="1618" width="243" height="82" as="geometry" />
        </mxCell>
        <mxCell id="aELBI8OFU14AnCiIAI6i-80" value="&lt;font color=&quot;#000000&quot;&gt;Photo&lt;/font&gt;" style="rounded=0;whiteSpace=wrap;html=1;fillColor=#FFFFFF;fontSize=20;fontColor=#FFFFFF;" parent="1" vertex="1">
          <mxGeometry x="144" y="220" width="190" height="190" as="geometry" />
        </mxCell>
        <mxCell id="aELBI8OFU14AnCiIAI6i-81" value="" style="rounded=1;fillColor=#275DAD;gradientColor=none;strokeColor=none;fontColor=#FFFFFF;fontStyle=0;fontFamily=Tahoma;fontSize=23;whiteSpace=wrap;" parent="1" vertex="1">
          <mxGeometry x="1329.5" y="239" width="176" height="60" as="geometry" />
        </mxCell>
        <mxCell id="URBacpaCe1M2qzBG3RH--1" value="Track amount of specifics medicines requests" style="rounded=1;fillColor=#23445D;gradientColor=none;strokeColor=none;fontColor=#FFFFFF;fontStyle=0;fontFamily=Tahoma;fontSize=20;whiteSpace=wrap;" vertex="1" parent="1">
          <mxGeometry x="1291" y="675" width="253" height="60" as="geometry" />
        </mxCell>
        <mxCell id="URBacpaCe1M2qzBG3RH--5" style="edgeStyle=orthogonalEdgeStyle;rounded=0;orthogonalLoop=1;jettySize=auto;html=1;entryX=0.636;entryY=0.005;entryDx=0;entryDy=0;entryPerimeter=0;" edge="1" parent="1" source="aELBI8OFU14AnCiIAI6i-13" target="aELBI8OFU14AnCiIAI6i-23">
          <mxGeometry relative="1" as="geometry">
            <Array as="points">
              <mxPoint x="1580" y="618" />
              <mxPoint x="1580" y="760" />
              <mxPoint x="1358" y="760" />
            </Array>
          </mxGeometry>
        </mxCell>
      </root>
    </mxGraphModel>
  </diagram>
</mxfile>
